<svg xmlns="http://www.w3.org/2000/svg" viewBox="0 0 512 512"><g data-name="39 Coming Soon"><ellipse cx="153.473" cy="126.661" rx="34.144" ry="39.466"/><path d="M464.194 48.427H47.804a36.8 36.8 0 0 0-36.8 36.81v82.85a36.8 36.8 0 0 0 36.8 36.81h298.65l37.71-21.77a36.812 36.812 0 0 1 50.28 13.47l4.79 8.3h24.96a36.81 36.81 0 0 0 36.81-36.81v-82.85a36.81 36.81 0 0 0-36.81-36.81zm-396.213 117.7c8.434 0 16.589-4.611 22.374-12.653a6 6 0 1 1 9.74 7.008c-8.066 11.214-19.773 17.646-32.114 17.646-23.46 0-42.546-23.088-42.546-51.467S44.52 75.195 67.98 75.195c12.338 0 24.043 6.435 32.114 17.654a6 6 0 1 1-9.74 7.008c-5.79-8.047-13.944-12.662-22.374-12.662-16.842 0-30.546 17.705-30.546 39.466s13.703 39.467 30.546 39.467zm85.492 12c-25.443 0-46.143-23.087-46.143-51.466s20.7-51.466 46.143-51.466 46.144 23.088 46.144 51.466-20.7 51.467-46.144 51.467zm134.366-6a6 6 0 1 1-12 0V99.25l-20.52 35.543a8.71 8.71 0 0 1-15.086 0l-20.52-35.542v72.876a6 6 0 1 1-12 0V82.786a7.588 7.588 0 0 1 14.16-3.795l25.903 44.866 25.903-44.866a7.588 7.588 0 0 1 14.16 3.795zm26.411 0a6 6 0 1 1-12 0V81.196a6 6 0 0 1 12 0zm80.022-1.37a7.194 7.194 0 0 1-13.422 3.602l-43.954-75.991v73.76a6 6 0 0 1-12 0V83.1a7.902 7.902 0 0 1 14.744-3.955l42.632 73.704V81.195a6 6 0 0 1 12 0zm92.015-26.03c-6.306 19.978-22.671 33.4-40.723 33.4-23.976 0-43.482-23.087-43.482-51.466s19.506-51.466 43.482-51.466c13.813 0 26.483 7.48 34.76 20.525a6 6 0 1 1-10.133 6.429c-6.03-9.503-15.006-14.954-24.627-14.954-17.36 0-31.481 17.705-31.481 39.466s14.122 39.467 31.481 39.467c10.412 0 20.145-6.66 25.952-17.207l-15.008-.002a6 6 0 0 1 .001-12h.001l24.056.003a6 6 0 0 1 5.72 7.806zM312.905 267.136a31.81 31.81 0 0 0-16.018 4.23c-8.174 4.719-13.79 12.825-15.813 22.825a44.46 44.46 0 0 0 5.46 30.98c11.42 19.779 34.646 27.826 51.773 17.936 8.174-4.719 13.79-12.825 15.814-22.825a44.46 44.46 0 0 0-5.461-30.98c-8.105-14.037-22.159-22.166-35.755-22.166zm-89.61 51.737a31.812 31.812 0 0 0-16.018 4.23c-8.174 4.718-13.79 12.824-15.814 22.824a44.46 44.46 0 0 0 5.461 30.98c11.42 19.781 34.649 27.824 51.773 17.937 8.174-4.719 13.79-12.825 15.813-22.825a44.46 44.46 0 0 0-5.46-30.98c-8.105-14.037-22.158-22.166-35.756-22.166z"/><path d="M471.835 261.359 434.447 196.6a36.806 36.806 0 0 0-50.278-13.472L105.315 344.125a36.806 36.806 0 0 0-13.472 50.277l37.389 64.759a36.806 36.806 0 0 0 50.278 13.472l278.853-160.996a36.806 36.806 0 0 0 13.472-50.278ZM177.347 449.824a29.654 29.654 0 0 1-28.556-1.15 6 6 0 1 1 6.173-10.29 17.752 17.752 0 1 0 2.324-31.592c-.337.184-.672.37-1.02.543-.515.255-1.023.488-1.533.704-.064.028-.129.05-.193.078l-.037.014a29.747 29.747 0 1 1-3.044-55.98 6 6 0 0 1-3.393 11.51 17.748 17.748 0 1 0 1.809 33.396c.337-.185.675-.37 1.026-.543.465-.231.94-.45 1.417-.654l.042-.019.003-.001.042-.019a29.753 29.753 0 0 1 24.94 54.003Zm98.925-75.425c-2.717 13.42-10.379 24.372-21.575 30.836a43.653 43.653 0 0 1-21.954 5.818c-17.782 0-35.888-10.266-46.211-28.147a56.45 56.45 0 0 1-6.83-39.36c2.716-13.42 10.379-24.372 21.575-30.837 22.86-13.197 53.437-3.18 68.165 22.33a56.45 56.45 0 0 1 6.83 39.36Zm89.61-51.737c-2.717 13.42-10.379 24.372-21.575 30.837a43.657 43.657 0 0 1-21.954 5.817c-17.782 0-35.888-10.266-46.211-28.146a56.45 56.45 0 0 1-6.83-39.36c2.717-13.421 10.379-24.373 21.575-30.837 22.856-13.198 53.436-3.181 68.165 22.329a56.45 56.45 0 0 1 6.83 39.36Zm90.548-34.396a7.255 7.255 0 0 1-8.743 1.158l-80.161-46.197 38.944 67.454a6 6 0 1 1-10.393 6l-46.425-80.412a7.984 7.984 0 0 1 10.9-10.912l77.776 44.823-37.847-65.553a6 6 0 1 1 10.393-6l46.705 80.897a7.256 7.256 0 0 1-1.149 8.742Z"/></g></svg>