<svg width="25" height="24" viewBox="0 0 25 24" fill="none" xmlns="http://www.w3.org/2000/svg">
<path d="M12.4557 24C19.3326 24 24.9074 18.6275 24.9074 12C24.9074 5.37259 19.3326 0 12.4557 0C5.57885 0 0.00404358 5.37259 0.00404358 12C0.00404358 18.6275 5.57885 24 12.4557 24Z" fill="#00DF76"/>
<path d="M12.4557 0C12.4501 0 12.4445 0.000187477 12.4388 0.000187477V23.9998C12.4445 23.9998 12.4501 24 12.4557 24C19.3326 24 24.9074 18.6274 24.9074 12C24.9074 5.37253 19.3326 0 12.4557 0Z" fill="#00AB5E"/>
<path d="M5.41591 12.2384L10.4523 17.0905C10.6719 17.3021 11.0281 17.3021 11.2477 17.0905L19.516 9.12473C19.7356 8.91311 19.7356 8.56998 19.516 8.35837L18.011 6.90847C17.7914 6.69685 17.4352 6.69685 17.2156 6.90847L11.2017 12.7022C10.982 12.9138 10.6259 12.9138 10.4062 12.7022L7.71122 10.1058C7.4959 9.89835 7.1483 9.89366 6.92705 10.0952L5.4272 11.4614C5.19699 11.6711 5.19188 12.0226 5.41591 12.2384V12.2384Z" fill="#FFF5F5"/>
<path d="M18.011 6.90844C17.7914 6.69682 17.4352 6.69682 17.2156 6.90844L12.4388 11.5104V15.9429L19.516 9.12474C19.7356 8.91313 19.7356 8.57 19.516 8.35834L18.011 6.90844Z" fill="#DFEBF1"/>
</svg>
